<svg width="51" height="25" viewBox="0 0 51 25" fill="none" xmlns="http://www.w3.org/2000/svg">
<path d="M9.93262 5.2627H12.7188V12.8301C12.7188 13.4512 12.8037 14.0049 12.9736 14.4912C13.1436 14.9717 13.3955 15.3789 13.7295 15.7129C14.0693 16.0469 14.4883 16.3018 14.9863 16.4775C15.4844 16.6475 16.0645 16.7324 16.7266 16.7324C17.3828 16.7324 17.96 16.6475 18.458 16.4775C18.9619 16.3018 19.3809 16.0469 19.7148 15.7129C20.0547 15.3789 20.3096 14.9717 20.4795 14.4912C20.6494 14.0049 20.7344 13.4512 20.7344 12.8301V5.2627H23.5205V13.1641C23.5205 14.0664 23.3682 14.8867 23.0635 15.625C22.7588 16.3633 22.3164 16.9961 21.7363 17.5234C21.1562 18.0508 20.4443 18.458 19.6006 18.7451C18.7627 19.0322 17.8047 19.1758 16.7266 19.1758C15.6484 19.1758 14.6875 19.0322 13.8438 18.7451C13.0059 18.458 12.2969 18.0508 11.7168 17.5234C11.1367 16.9961 10.6943 16.3633 10.3896 15.625C10.085 14.8867 9.93262 14.0664 9.93262 13.1641V5.2627ZM27.5635 14.9131C28.0615 15.1943 28.5654 15.4492 29.0752 15.6777C29.5908 15.9004 30.124 16.0908 30.6748 16.249C31.2256 16.4014 31.8027 16.5186 32.4062 16.6006C33.0156 16.6826 33.6631 16.7236 34.3486 16.7236C35.1748 16.7236 35.8779 16.6709 36.458 16.5654C37.0381 16.4541 37.5098 16.3047 37.873 16.1172C38.2422 15.9238 38.5088 15.6953 38.6729 15.4316C38.8428 15.168 38.9277 14.8809 38.9277 14.5703C38.9277 14.0723 38.7197 13.6797 38.3037 13.3926C37.8877 13.0996 37.2461 12.9531 36.3789 12.9531C35.998 12.9531 35.5967 12.9795 35.1748 13.0322C34.7529 13.0791 34.3252 13.1318 33.8916 13.1904C33.4639 13.249 33.0391 13.3047 32.6172 13.3574C32.2012 13.4043 31.8086 13.4277 31.4395 13.4277C30.8242 13.4277 30.2324 13.3486 29.6641 13.1904C29.1016 13.0322 28.6006 12.7949 28.1611 12.4785C27.7275 12.1621 27.3818 11.7666 27.124 11.292C26.8662 10.8174 26.7373 10.2637 26.7373 9.63086C26.7373 9.25586 26.7871 8.88379 26.8867 8.51465C26.9922 8.14551 27.1562 7.79395 27.3789 7.45996C27.6074 7.12012 27.9004 6.80664 28.2578 6.51953C28.6152 6.22656 29.0459 5.97461 29.5498 5.76367C30.0596 5.55273 30.6455 5.38867 31.3076 5.27148C31.9756 5.14844 32.7344 5.08691 33.584 5.08691C34.1992 5.08691 34.8174 5.12207 35.4385 5.19238C36.0596 5.25684 36.6631 5.35059 37.249 5.47363C37.8408 5.59668 38.4092 5.74609 38.9541 5.92188C39.499 6.0918 40.0059 6.28223 40.4746 6.49316L39.2529 8.74316C38.8662 8.57324 38.4502 8.41797 38.0049 8.27734C37.5596 8.13086 37.0938 8.00488 36.6074 7.89941C36.1211 7.79395 35.6172 7.71191 35.0957 7.65332C34.5801 7.58887 34.0527 7.55664 33.5137 7.55664C32.7461 7.55664 32.1133 7.6123 31.6152 7.72363C31.123 7.83496 30.7305 7.97852 30.4375 8.1543C30.1445 8.32422 29.9395 8.51758 29.8223 8.73438C29.7109 8.94531 29.6553 9.15625 29.6553 9.36719C29.6553 9.77734 29.8398 10.1143 30.209 10.3779C30.5781 10.6357 31.1406 10.7646 31.8965 10.7646C32.2012 10.7646 32.5498 10.7441 32.9424 10.7031C33.3408 10.6562 33.7568 10.6064 34.1904 10.5537C34.6299 10.501 35.0752 10.4541 35.5264 10.4131C35.9834 10.3662 36.4258 10.3428 36.8535 10.3428C37.6621 10.3428 38.377 10.4336 38.998 10.6152C39.625 10.7969 40.1494 11.0576 40.5713 11.3975C40.9932 11.7314 41.3125 12.1387 41.5293 12.6191C41.7461 13.0938 41.8545 13.627 41.8545 14.2188C41.8545 15.0098 41.6699 15.7158 41.3008 16.3369C40.9375 16.9521 40.416 17.4736 39.7363 17.9014C39.0625 18.3232 38.248 18.6455 37.293 18.8682C36.3379 19.085 35.2744 19.1934 34.1025 19.1934C33.3291 19.1934 32.5732 19.1436 31.835 19.0439C31.0967 18.9502 30.3877 18.8154 29.708 18.6396C29.0342 18.458 28.3896 18.2441 27.7744 17.998C27.165 17.7461 26.5996 17.4707 26.0781 17.1719L27.5635 14.9131Z" fill="white"/>
<path d="M50 12.5C50 15.6604 47.425 18.6561 42.9541 20.8916C38.513 23.1121 32.3428 24.5 25.5 24.5C18.6572 24.5 12.487 23.1121 8.04594 20.8916C3.57498 18.6561 1 15.6604 1 12.5C1 9.33963 3.57498 6.34386 8.04594 4.10838C12.487 1.88785 18.6572 0.5 25.5 0.5C32.3428 0.5 38.513 1.88785 42.9541 4.10838C47.425 6.34386 50 9.33963 50 12.5Z" stroke="white"/>
</svg>
